<svg xmlns="http://www.w3.org/2000/svg" version="1.1" xmlns:xlink="http://www.w3.org/1999/xlink" xmlns:svgjs="http://svgjs.dev/svgjs" width="1500" height="1500" viewBox="0 0 1500 1500"><rect width="1500" height="1500" fill="#ffffff"></rect><g transform="matrix(0.6666666666666666,0,0,0.6666666666666666,249.39393939393932,571.7844082258516)"><svg viewBox="0 0 396 141" data-background-color="#ffffff" preserveAspectRatio="xMidYMid meet" height="534" width="1500" xmlns="http://www.w3.org/2000/svg" xmlns:xlink="http://www.w3.org/1999/xlink"><g id="tight-bounds" transform="matrix(1,0,0,1,0.24000000000003752,0.0853888768396871)"><svg viewBox="0 0 395.5199999999999 140.82922224632063" height="140.82922224632063" width="395.5199999999999"><g><svg viewBox="0 0 651.6498697657998 232.02706395639595" height="140.82922224632063" width="395.5199999999999"><g transform="matrix(1,0,0,1,0,32.06741621973346)"><svg viewBox="0 0 395.52 167.89223151692903" height="167.89223151692903" width="395.52"><g id="textblocktransform"><svg viewBox="0 0 395.52 167.89223151692903" height="167.89223151692903" width="395.52" id="textblock"><g><svg viewBox="0 0 395.52 105.3410559330894" height="105.3410559330894" width="395.52"><g transform="matrix(1,0,0,1,0,0)"><svg width="395.52" viewBox="2.2 -37.95 190.93 50.95" height="105.3410559330894" data-palette-color="#556970"><g class="wordmark-text-0" data-fill-palette-color="primary" id="text-0"><path d="M11.8 0.5Q8.55 0.5 6.4-0.45 4.25-1.4 3.23-2.48 2.2-3.55 2.2-3.75L2.2-3.75 3.45-5.7Q3.45-5.55 4.4-4.58 5.35-3.6 7.18-2.78 9-1.95 11.65-1.95L11.65-1.95Q14.8-1.95 16.6-3.78 18.4-5.6 18.4-8.3L18.4-8.3Q18.4-10.15 17.5-11.4 16.6-12.65 15.28-13.4 13.95-14.15 11.7-15.1L11.7-15.1Q9.1-16.15 7.5-17.1 5.9-18.05 4.8-19.73 3.7-21.4 3.7-24L3.7-24Q3.7-28.1 6.3-30.53 8.9-32.95 13.25-32.95L13.25-32.95Q15.4-32.95 17.13-32.33 18.85-31.7 19.9-30.98 20.95-30.25 20.95-30.15L20.95-30.15 20.45-27.95Q20.45-28.05 19.45-28.75 18.45-29.45 16.9-30.05 15.35-30.65 13.45-30.65L13.45-30.65Q10.65-30.65 9.05-29.1 7.45-27.55 7.45-24.9L7.45-24.9Q7.45-23.05 8.33-21.83 9.2-20.6 10.53-19.85 11.85-19.1 14.05-18.2L14.05-18.2Q16.7-17.1 18.3-16.13 19.9-15.15 21.03-13.4 22.15-11.65 22.15-8.9L22.15-8.9Q22.15-6.15 20.88-4.03 19.6-1.9 17.25-0.7 14.9 0.5 11.8 0.5L11.8 0.5ZM34.4 0.5Q31.7 0.5 30.4-1.18 29.1-2.85 29.1-6.7L29.1-6.7 29.1-22.55 26.5-22.55 26.5-24.65 29.1-24.95 30.45-32.9 32.75-32.9 32.75-25 39.15-25 39.15-22.55 32.75-22.55 32.75-7.6Q32.75-4.35 33.37-3.13 34-1.9 35.55-1.9L35.55-1.9Q36.8-1.9 37.8-2.15 38.8-2.4 38.8-2.45L38.8-2.45 39.05-0.45Q38.95-0.35 38.42-0.13 37.9 0.1 36.87 0.3 35.85 0.5 34.4 0.5L34.4 0.5ZM49.7 0.5Q46.4 0.5 44.4-1.13 42.4-2.75 42.4-5.65L42.4-5.65Q42.4-13 56.55-14.5L56.55-14.5 56.55-17.15Q56.55-20.7 55.4-22 54.25-23.3 51.34-23.3L51.34-23.3Q50.05-23.3 48.7-22.83 47.34-22.35 46.42-21.83 45.5-21.3 45.25-21.15L45.25-21.15 44.84-23.2Q45.09-23.4 46.12-23.95 47.15-24.5 48.72-25 50.3-25.5 51.9-25.5L51.9-25.5Q56.2-25.5 58.2-23.7 60.2-21.9 60.2-17.35L60.2-17.35 60.2-5.1Q60.2-3.1 60.57-2.4 60.95-1.7 61.5-1.7L61.5-1.7Q61.95-1.7 62.59-1.88 63.25-2.05 63.45-2.15L63.45-2.15 63.59-0.45Q63.2-0.3 61.9 0.1 60.59 0.5 59.7 0.5L59.7 0.5Q58.4 0.5 57.7-0.33 57-1.15 56.84-3.25L56.84-3.25 56.8-3.25Q56.8-3.05 56-2.1 55.2-1.15 53.62-0.33 52.05 0.5 49.7 0.5L49.7 0.5ZM50.8-1.7Q52.59-1.7 53.9-2.5 55.2-3.3 55.87-4.25 56.55-5.2 56.55-5.35L56.55-5.35 56.55-12.65Q52-12.15 49.07-10.7 46.15-9.25 46.15-6.1L46.15-6.1Q46.15-3.95 47.4-2.83 48.65-1.7 50.8-1.7L50.8-1.7ZM68.34 0L68.34-25 71.04-25 71.59-19.85Q71.59-20.15 72.17-21.58 72.74-23 73.94-24.25 75.14-25.5 77.04-25.5L77.04-25.5Q77.99-25.5 79.19-25.18 80.39-24.85 80.74-24.7L80.74-24.7 80.39-21.95Q80.04-22.1 78.82-22.4 77.59-22.7 76.64-22.7L76.64-22.7Q75.19-22.7 74.17-21.73 73.14-20.75 72.64-19.65 72.14-18.55 71.99-18L71.99-18 71.99 0 68.34 0Z" fill="#556970" data-fill-palette-color="primary"></path><path d="M97.14 0L97.14-22.55 94.54-22.55 94.54-24.65 97.14-24.95 97.14-28.55Q97.14-33.4 98.64-35.68 100.14-37.95 103.69-37.95L103.69-37.95Q104.89-37.95 105.94-37.63 106.99-37.3 107.64-36.95 108.29-36.6 108.44-36.5L108.44-36.5 107.94-34.55Q107.79-34.65 107.29-34.93 106.79-35.2 105.99-35.45 105.19-35.7 104.34-35.7L104.34-35.7Q102.99-35.7 102.24-35.05 101.49-34.4 101.11-32.75 100.74-31.1 100.74-28.15L100.74-28.15 100.74-25 107.99-25 107.99-22.55 100.74-22.55 100.74 0 97.14 0ZM120.54 0.5Q115.33 0.5 112.61-2.9 109.88-6.3 109.88-12.5L109.88-12.5Q109.88-18.7 112.61-22.1 115.33-25.5 120.54-25.5L120.54-25.5Q125.73-25.5 128.46-22.1 131.19-18.7 131.19-12.5L131.19-12.5Q131.19-6.35 128.41-2.93 125.63 0.5 120.54 0.5L120.54 0.5ZM120.54-1.7Q124.04-1.7 125.69-4.38 127.33-7.05 127.33-12.5L127.33-12.5Q127.33-17.9 125.69-20.6 124.04-23.3 120.54-23.3L120.54-23.3Q117.04-23.3 115.38-20.63 113.73-17.95 113.73-12.5L113.73-12.5Q113.73-7.05 115.38-4.38 117.04-1.7 120.54-1.7L120.54-1.7ZM136.78 0L136.78-25 139.48-25 140.03-19.85Q140.03-20.15 140.61-21.58 141.18-23 142.38-24.25 143.58-25.5 145.48-25.5L145.48-25.5Q146.43-25.5 147.63-25.18 148.83-24.85 149.18-24.7L149.18-24.7 148.83-21.95Q148.48-22.1 147.26-22.4 146.03-22.7 145.08-22.7L145.08-22.7Q143.63-22.7 142.61-21.73 141.58-20.75 141.08-19.65 140.58-18.55 140.43-18L140.43-18 140.43 0 136.78 0ZM161.33 13Q156.03 13 153.28 10.93 150.53 8.85 150.53 4.85L150.53 4.85Q150.53 2.25 151.71 0.65 152.88-0.95 154.68-1.7L154.68-1.7Q153.78-2.75 153.78-4.65L153.78-4.65Q153.78-7.1 156.08-8.85L156.08-8.85Q154.08-9.9 152.98-11.88 151.88-13.85 151.88-16.65L151.88-16.65Q151.88-21.2 154.46-23.35 157.03-25.5 161.08-25.5L161.08-25.5Q163.03-25.5 164.53-25L164.53-25 170.98-24.95 170.98-23 167.78-22.9Q169.78-20.65 169.78-16.65L169.78-16.65Q169.78-12.35 167.46-10.05 165.13-7.75 161.03-7.75L161.03-7.75Q159.33-7.75 157.98-8.1L157.98-8.1Q156.23-6.95 156.23-5.5L156.23-5.5Q156.23-4.15 157.33-3.63 158.43-3.1 160.88-3.1L160.88-3.1Q171.83-3.1 171.83 4.6L171.83 4.6Q171.83 8.7 169.11 10.85 166.38 13 161.33 13L161.33 13ZM160.93-9.75Q166.23-9.75 166.23-16.7L166.23-16.7Q166.23-20.3 164.83-21.83 163.43-23.35 160.88-23.35L160.88-23.35Q158.33-23.35 156.86-21.85 155.38-20.35 155.38-16.65L155.38-16.65Q155.38-13.25 156.83-11.5 158.28-9.75 160.93-9.75L160.93-9.75ZM161.33 10.75Q164.83 10.75 166.73 9.33 168.63 7.9 168.63 5.2L168.63 5.2Q168.63-0.05 160.48-0.05L160.48-0.05Q158.13-0.05 156.73-0.45L156.73-0.45Q155.23 0.15 154.31 1.48 153.38 2.8 153.38 4.8L153.38 4.8Q153.38 7.8 155.46 9.28 157.53 10.75 161.33 10.75L161.33 10.75ZM184.63 0.5Q179.63 0.5 176.78-2.63 173.93-5.75 173.93-12L173.93-12Q173.93-18.3 176.68-21.9 179.43-25.5 184.18-25.5L184.18-25.5Q188.48-25.5 190.8-22.53 193.13-19.55 193.13-14.1L193.13-14.1Q193.13-13.15 193.03-12.55 192.93-11.95 192.88-11.8L192.88-11.8 177.73-11.8Q177.73-1.7 185.03-1.7L185.03-1.7Q187.03-1.7 188.45-2.43 189.88-3.15 190.68-3.98 191.48-4.8 191.48-4.95L191.48-4.95 192.93-3.75Q192.93-3.55 191.98-2.48 191.03-1.4 189.18-0.45 187.33 0.5 184.63 0.5L184.63 0.5ZM177.78-13.9L189.73-13.9 189.78-14.85Q189.78-23.35 184.18-23.35L184.18-23.35Q181.23-23.35 179.63-21.03 178.03-18.7 177.78-13.9L177.78-13.9Z" fill="#aba944" data-fill-palette-color="accent"></path></g></svg></g></svg></g><g transform="matrix(1,0,0,1,163.310208,130.2095510535494)"><svg viewBox="0 0 232.209792 37.68268046337961" height="37.68268046337961" width="232.209792"><g transform="matrix(1,0,0,1,0,0)"><svg width="232.209792" viewBox="2 -33.45 208.88 33.900000000000006" height="37.68268046337961" data-palette-color="#556970"><path d="M8.85 0Q4.95-10.9 2-23.25L2-23.25 4.95-23.55Q8.25-9.75 10.5-3L10.5-3 10.9-3Q14.25-11.45 16.4-18.65L16.4-18.65Q16.2-19.45 15.45-22.95L15.45-22.95 18.15-23.25Q20.65-12.3 24-2.85L24-2.85 24.45-2.85Q27.05-9.75 30.7-23.65L30.7-23.65 33.6-23.3Q31.35-15.45 29.73-10.23 28.1-5 26.15 0L26.15 0 22.35 0Q19.45-7.8 17.65-14.2L17.65-14.2 17.4-14.2Q16.4-11.2 13.2-2.4L13.2-2.4 12.3 0 8.85 0ZM46.55 0.45Q41.7 0.45 39.45-2.68 37.2-5.8 37.2-11.45L37.2-11.45Q37.2-17.35 39.6-20.68 42-24 47.7-24L47.7-24Q52.5-24 54.77-20.78 57.05-17.55 57.05-11.85L57.05-11.85Q57.05-6 54.65-2.78 52.25 0.45 46.55 0.45L46.55 0.45ZM47.4-2.2Q50.4-2.2 52.5-3.25L52.5-3.25Q54.05-6 54.05-11.25L54.05-11.25Q54.05-16.55 52.47-18.93 50.9-21.3 46.85-21.3L46.85-21.3Q43.7-21.3 41.75-20.25L41.75-20.25Q41.05-18.95 40.62-16.78 40.2-14.6 40.2-12L40.2-12Q40.2-8.5 40.85-6.38 41.5-4.25 43.07-3.23 44.65-2.2 47.4-2.2L47.4-2.2ZM63.8 0L63.8-23.3 66.25-23.3 66.5-18.8 66.95-18.8Q68.1-21 70.17-22.3 72.25-23.6 74.6-23.6L74.6-23.6Q74.95-23.6 75.47-23.23 76-22.85 76.2-22.5L76.2-22.5 75.85-20.15 73.8-20.15Q71.25-20.15 69.42-19 67.6-17.85 66.8-15.75L66.8-15.75 66.8 0 63.8 0ZM85.24 0.35Q84.04-0.1 82.77-1.4 81.49-2.7 81.49-3.8L81.49-3.8 81.49-33.45 84.44-33.45 84.44-4.3Q84.44-3.5 84.52-3.08 84.59-2.65 84.84-2.2L84.84-2.2 85.54-2.2 88.64-3.7 89.94-2.05Q89.14-1.1 87.89-0.45 86.64 0.2 85.24 0.35L85.24 0.35ZM102.84 0.45Q98.14 0.45 96.04-2.68 93.94-5.8 93.94-11.75L93.94-11.75Q93.94-16.9 96.04-20.35 98.14-23.8 102.64-23.8L102.64-23.8Q106.79-23.8 109.99-20.6L109.99-20.6 110.34-20.6 110.14-24.4 110.14-33.45 113.14-33.45 113.14 0 110.59 0 110.39-3.3 109.99-3.3Q107.19 0.45 102.84 0.45L102.84 0.45ZM103.59-2.2Q105.89-2.2 107.57-3.38 109.24-4.55 110.14-6.3L110.14-6.3 110.14-18.1Q108.54-19.7 106.99-20.43 105.44-21.15 103.54-21.15L103.54-21.15Q100.19-21.15 98.64-18.73 97.09-16.3 97.09-11.6L97.09-11.6Q97.09-6.75 98.52-4.48 99.94-2.2 103.59-2.2L103.59-2.2ZM126.04 0Q122.14-10.9 119.19-23.25L119.19-23.25 122.14-23.55Q125.44-9.75 127.69-3L127.69-3 128.09-3Q131.44-11.45 133.59-18.65L133.59-18.65Q133.39-19.45 132.64-22.95L132.64-22.95 135.34-23.25Q137.84-12.3 141.19-2.85L141.19-2.85 141.64-2.85Q144.24-9.75 147.89-23.65L147.89-23.65 150.79-23.3Q148.54-15.45 146.91-10.23 145.29-5 143.34 0L143.34 0 139.54 0Q136.64-7.8 134.84-14.2L134.84-14.2 134.59-14.2Q133.59-11.2 130.39-2.4L130.39-2.4 129.49 0 126.04 0ZM156.44-27.7L156.44-32.35 159.59-32.35 159.59-27.7 156.44-27.7ZM156.49 0L156.49-23.35 159.44-23.35 159.44 0 156.49 0ZM175.18 0.45Q170.48 0.45 168.38-2.68 166.28-5.8 166.28-11.75L166.28-11.75Q166.28-16.9 168.38-20.35 170.48-23.8 174.98-23.8L174.98-23.8Q179.13-23.8 182.33-20.6L182.33-20.6 182.68-20.6 182.48-24.4 182.48-33.45 185.48-33.45 185.48 0 182.93 0 182.73-3.3 182.33-3.3Q179.53 0.45 175.18 0.45L175.18 0.45ZM175.93-2.2Q178.23-2.2 179.91-3.38 181.58-4.55 182.48-6.3L182.48-6.3 182.48-18.1Q180.88-19.7 179.33-20.43 177.78-21.15 175.88-21.15L175.88-21.15Q172.53-21.15 170.98-18.73 169.43-16.3 169.43-11.6L169.43-11.6Q169.43-6.75 170.86-4.48 172.28-2.2 175.93-2.2L175.93-2.2ZM202.38 0.45Q192.28 0.45 192.28-11.55L192.28-11.55Q192.28-17.3 194.86-20.55 197.43-23.8 202.38-23.8L202.38-23.8Q206.48-23.8 208.68-21.35 210.88-18.9 210.88-14.55L210.88-14.55Q210.88-14.05 210.78-12.95L210.78-12.95 208.23-10.4 195.23-10.5Q195.33-6.35 197.11-4.28 198.88-2.2 202.53-2.2L202.53-2.2Q204.73-2.2 206.28-2.68 207.83-3.15 209.48-4.15L209.48-4.15 210.48-1.8Q208.63-0.7 206.81-0.13 204.98 0.45 202.38 0.45L202.38 0.45ZM195.18-12.75L207.78-12.95Q208.08-14.15 208.08-15.35L208.08-15.35Q208.08-18.05 206.58-19.6 205.08-21.15 202.18-21.15L202.18-21.15Q198.48-21.15 196.93-19.1 195.38-17.05 195.18-12.75L195.18-12.75Z" opacity="1" transform="matrix(1,0,0,1,0,0)" fill="#556970" class="slogan-text-1" data-fill-palette-color="secondary" id="text-1"></path></svg></g></svg></g></svg></g></svg></g><g transform="matrix(1,0,0,1,420.38849512046,0)"><svg viewBox="0 0 231.26137464533983 232.02706395639595" height="232.02706395639595" width="231.26137464533983"><g><svg xmlns="http://www.w3.org/2000/svg" xmlns:xlink="http://www.w3.org/1999/xlink" version="1.1" x="0" y="0" viewBox="0.165 0 99.67 100" enable-background="new 0 0 100 100" xml:space="preserve" height="232.02706395639595" width="231.26137464533983" class="icon-icon-0" data-fill-palette-color="accent" id="icon-0"><g fill="#aba944" data-fill-palette-color="accent"><g fill="#aba944" data-fill-palette-color="accent"><path d="M31.943 4.695l-6.242 8.612-10.767 3.23-2.368 3.23-1.84-0.42C4.133 27.814 0.165 38.435 0.165 50c0 4.251 0.588 8.355 1.592 12.294l10.158 8.296-3.033 7.602C17.886 91.354 33.011 100 50.165 100c25.729 0 46.897-19.449 49.67-44.439l-4.147-8.014-6.68 5.602-1.281 6.891L81.689 47.98l-7.75-1.939-1.502 4.521-8.613 5.388 5.379 1.505-8.18 12.492-0.435 9.042-6.675 10.985-7.112 1.721c0 0-4.736-13.135-4.517-13.782 0.214-0.647-0.862-14.858-1.506-15.289-0.647-0.433-12.706-1.505-12.706-1.505l-4.955-13.354 8.395-10.338-2.368-5.169 4.097-3.23 7.751-6.674-1.515-3.445 8.404-7.756 7.327 1.725 22.135-4.804C69.52 2.985 60.193 0 50.165 0 42.628 0 35.52 1.711 29.116 4.695H31.943zM50.041 5.555l-4.744 3.232-1.935-3.232H50.041zM24.839 16.537l3.449-1.935 0.858 2.368L24.839 16.537zM34.246 19.05l2.518 5.521-3.247 1.828-2.866-1.175 1.133-2.561 0.442-3.037L34.246 19.05z" fill="#aba944" data-fill-palette-color="accent"></path><polygon points="33.243,36.994 40.132,36.423 41.312,38.727 48.428,39.658 56.434,40.992 58.079,36.543 49.582,36.054     45.85,31.829 46.729,34.84 44.297,36.852 44.297,35.415 39.167,31.782   " fill="#aba944" data-fill-palette-color="accent"></polygon><polygon points="49.393,15.335 45.811,17.484 45.099,20.346 42.375,23.207 50.242,21.345   " fill="#aba944" data-fill-palette-color="accent"></polygon><polygon points="61.215,31.658 54.575,28.458 52.945,32.79 60.078,33.369   " fill="#aba944" data-fill-palette-color="accent"></polygon></g></g></svg></g></svg></g></svg></g><defs></defs></svg><rect width="395.5199999999999" height="140.82922224632063" fill="none" stroke="none" visibility="hidden"></rect></g></svg></g></svg>